<svg xmlns="http://www.w3.org/2000/svg" version="1.1" xmlns:xlink="http://www.w3.org/1999/xlink" xmlns:svgjs="http://svgjs.dev/svgjs" width="1500" height="1500" viewBox="0 0 1500 1500"><g transform="matrix(1,0,0,1,0,0)"><svg viewBox="0 0 280 280" data-background-color="#ed2647" preserveAspectRatio="xMidYMid meet" height="1500" width="1500" xmlns="http://www.w3.org/2000/svg" xmlns:xlink="http://www.w3.org/1999/xlink"><g id="tight-bounds" transform="matrix(1,0,0,1,0,0)"><svg viewBox="0 0 280 280" height="280" width="280"><g><svg viewBox="0 0 280 280" height="280" width="280"><g><svg viewBox="0 0 280 280" height="280" width="280"><g id="textblocktransform"><svg viewBox="0 0 280 280" height="280" width="280" id="textblock"><g><svg viewBox="0 0 280 280" height="280" width="280"><g transform="matrix(1,0,0,1,85.22279468408212,86.93458383544169)"><svg viewBox="0 0 109.55441063183576 106.13083232911664" height="106.13083232911664" width="109.55441063183576"><g id="icon-0"><svg xmlns="http://www.w3.org/2000/svg" data-name="Layer 1" viewBox="0 2 128.00000358256594 124" x="0" y="0" height="106.13083232911664" width="109.55441063183576" class="icon-jxe-0" data-fill-palette-color="accent" id="jxe-0"><path d="M75 26A2 2 0 0 0 75 22H49A2 2 0 0 0 49 26Z" fill="#ffffff" data-fill-palette-color="accent"></path><path d="M35 86H85.76L86.903 82H35A2 2 0 0 0 35 86" fill="#ffffff" data-fill-palette-color="accent"></path><path d="M35 96H82.903L84.046 92H35A2 2 0 0 0 35 96" fill="#ffffff" data-fill-palette-color="accent"></path><path d="M35 76H87.827A11.3 11.3 0 0 1 85.727 72H35A2 2 0 0 0 35 76" fill="#ffffff" data-fill-palette-color="accent"></path><path d="M35 66H84.609A69 69 0 0 1 84.19 62H35A2 2 0 0 0 35 66" fill="#ffffff" data-fill-palette-color="accent"></path><path d="M35 56H84.014A61 61 0 0 1 84.217 52H35A2 2 0 0 0 35 56" fill="#ffffff" data-fill-palette-color="accent"></path><path d="M35 46H85.053Q85.44 44.014 86 42H35A2 2 0 0 0 35 46" fill="#ffffff" data-fill-palette-color="accent"></path><path d="M33 34A2 2 0 0 0 35 36H88.075Q88.889 34.029 89.819 32.179A2 2 0 0 0 89 32H35A2 2 0 0 0 33 34" fill="#ffffff" data-fill-palette-color="accent"></path><path d="M113.6 2H33.563A13.31 13.31 0 0 0 20.291 15.32V105.852H2A2 2 0 0 0 0 107.852V110.336C0 118.973 6.46 126 14.4 126H88.8A14.563 14.563 0 0 0 103.2 111.313V77.496A12 12 0 0 1 100.175 79.227L99.2 82.64V111.313A10.404 10.404 0 1 1 78.4 111.313V107.852A2 2 0 0 0 76.4 105.852H24.291V15.32A9.306 9.306 0 0 1 33.563 6H103.683A14.43 14.43 0 0 0 99.2 16.453V18.217A77 77 0 0 1 101.39 15.767 12.2 12.2 0 0 1 103.504 13.993 10.388 10.388 0 0 1 124 16.453V16.717H118.754A11.4 11.4 0 0 1 120.477 20.717H126A2 2 0 0 0 128 18.717V16.453A14.443 14.443 0 0 0 113.6 2M78.933 122H14.4C8.666 122 4 116.768 4 110.336V109.852H74.4V111.312A14.8 14.8 0 0 0 78.933 122" fill="#ffffff" data-fill-palette-color="accent"></path><path d="M111.69 16.253A7.41 7.41 0 0 0 104.312 18.499C99.44 23.711 92.994 32.136 89.96 42.674 86.922 53.223 87.979 63.538 89.401 70.334A7.01 7.01 0 0 0 93.001 75.214L86.078 99.45A2 2 0 1 0 89.923 100.55L96.952 75.949A7.73 7.73 0 0 0 101.687 73.501C106.561 68.289 113.006 59.864 116.041 49.326 119.078 38.777 118.021 28.462 116.599 21.666A6.93 6.93 0 0 0 111.69 16.253M112.197 48.219C109.382 57.994 103.34 65.877 98.766 70.769A4.3 4.3 0 0 1 98.198 71.272C99.454 65.316 101.398 57.978 103.73 50.417 105.73 43.944 107.848 37.83 109.861 32.734A2 2 0 0 0 106.14 31.266C104.09 36.456 101.936 42.669 99.91 49.237 97.451 57.197 95.414 64.94 94.14 71.128A3.3 3.3 0 0 1 93.316 69.515C91.987 63.162 90.993 53.54 93.803 43.78 96.618 34.006 102.66 26.123 107.234 21.231A3.58 3.58 0 0 1 110.614 20.104 2.96 2.96 0 0 1 112.684 22.485C114.013 28.838 115.007 38.46 112.197 48.22" fill="#ffffff" data-fill-palette-color="accent"></path></svg></g></svg></g><g id="text-0"><path d="M32.08 94.794l-2.978 8.437-3.451-1.218 2.824-7.998c0.599-1.697 0.678-3.023 0.236-3.98-0.448-0.959-1.298-1.659-2.55-2.101v0l-0.648-0.229c-1.277-0.451-2.39-0.436-3.339 0.044-0.942 0.482-1.728 1.616-2.359 3.402v0l-2.773 7.855-3.298-1.164 2.759-7.817c0.565-1.602 0.627-2.859 0.185-3.773-0.436-0.911-1.258-1.58-2.465-2.007v0l-0.343-0.121c-1.182-0.417-2.216-0.414-3.102 0.009-0.886 0.424-1.62 1.461-2.203 3.114v0l-2.773 7.855-3.423-1.208 2.911-8.246c1.039-2.943 2.343-4.855 3.913-5.737 1.578-0.887 3.409-0.962 5.494-0.227v0l0.381 0.135c1.602 0.565 2.714 1.373 3.337 2.422 0.621 1.055 0.764 2.392 0.428 4.01v0l0.21 0.074c0.975-1.65 2.103-2.699 3.384-3.147 1.285-0.44 2.839-0.338 4.663 0.306v0l0.791 0.279c2.288 0.808 3.822 2.1 4.603 3.877 0.781 1.777 0.643 4.162-0.414 7.154zM29.536 102.001l-1.46 4.138-26.693-9.423 1.461-4.137z" fill="#d9cbce" data-fill-palette-color="primary"></path><path d="M48.383 65.68l-2.54 3.528-23.802-17.134 2.539-3.528z" fill="#d9cbce" data-fill-palette-color="primary"></path><path d="M70.426 45.486v0c-2.514 1.96-4.944 2.779-7.291 2.454-2.352-0.32-4.508-1.737-6.468-4.25v0l-1.896-2.432c-1.952-2.503-2.795-4.932-2.528-7.285 0.262-2.349 1.65-4.504 4.164-6.464v0c2.519-1.965 4.947-2.785 7.284-2.463 2.337 0.323 4.482 1.736 6.434 4.239v0l1.896 2.431c1.96 2.514 2.814 4.946 2.562 7.297-0.252 2.351-1.638 4.508-4.157 6.473zM68.256 42.703v0c1.387-1.082 2.121-2.316 2.201-3.703 0.076-1.393-0.489-2.862-1.694-4.409v0l-2.22-2.846c-1.198-1.536-2.479-2.434-3.844-2.694-1.361-0.255-2.735 0.159-4.123 1.24v0c-1.382 1.078-2.115 2.307-2.199 3.689-0.08 1.387 0.478 2.849 1.676 4.386v0l2.219 2.846c1.206 1.547 2.494 2.453 3.864 2.718 1.365 0.26 2.739-0.149 4.12-1.227z" fill="#d9cbce" data-fill-palette-color="primary"></path><path d="M101.496 21.374v0c-2.886 0.975-5.305 1.11-7.258 0.404-1.955-0.712-3.318-2.208-4.089-4.487v0l-0.113-0.335c-0.488-1.443-0.606-2.794-0.356-4.053 0.242-1.263 0.923-2.414 2.044-3.454 1.121-1.04 2.739-1.957 4.855-2.751v0l10.539-3.957 1.085 3.208-5.792 1.681 0.077 0.229c0.882-0.063 1.669 0.034 2.361 0.291 0.685 0.259 1.279 0.67 1.782 1.233 0.503 0.563 0.906 1.291 1.208 2.185v0l0.078 0.23c0.727 2.152 0.553 4.046-0.523 5.683-1.078 1.631-3.044 2.928-5.898 3.893zM104.991 32.283v0l0.527-0.178c1.188-0.401 2.165-0.824 2.933-1.269 0.774-0.447 1.32-0.926 1.637-1.439 0.318-0.513 0.374-1.073 0.169-1.679v0l-0.02-0.057c-0.242-0.715-0.675-1.166-1.3-1.353-0.625-0.187-1.579-0.124-2.861 0.187v0l-6.109 1.436 1.018-0.398c-0.638 0.344-1.173 0.717-1.607 1.12-0.433 0.402-0.731 0.837-0.893 1.304-0.156 0.465-0.141 0.972 0.045 1.522v0l0.013 0.038c0.218 0.645 0.613 1.088 1.185 1.328 0.574 0.247 1.305 0.313 2.191 0.199 0.886-0.115 1.91-0.368 3.072-0.761zM106.539 35.41l-0.69 0.233c-1.89 0.639-3.574 1.023-5.052 1.153-1.47 0.134-2.694-0.036-3.673-0.509-0.978-0.473-1.668-1.304-2.069-2.492v0l-0.029-0.086c-0.27-0.798-0.318-1.529-0.143-2.192 0.174-0.664 0.515-1.266 1.021-1.808 0.516-0.537 1.137-0.993 1.865-1.366v0l-0.071-0.211c-1.093 0.135-1.969 0.047-2.629-0.264-0.656-0.319-1.113-0.862-1.372-1.628v0l-0.01-0.028c-0.179-0.53-0.215-1.026-0.108-1.49 0.107-0.463 0.364-0.891 0.771-1.285 0.399-0.398 0.951-0.755 1.655-1.071v0l-0.156-0.46 4.676-0.407-1.594 0.464c-0.819 0.291-1.352 0.589-1.597 0.893-0.252 0.306-0.317 0.641-0.194 1.004v0l0.006 0.019c0.142 0.421 0.483 0.651 1.023 0.69 0.535 0.047 1.383-0.055 2.543-0.305v0l5.184-1.144c2.289-0.51 4.087-0.517 5.393-0.019 1.304 0.491 2.245 1.589 2.821 3.294v0l0.035 0.105c0.445 1.315 0.426 2.524-0.055 3.626-0.477 1.093-1.356 2.08-2.638 2.961-1.29 0.877-2.928 1.651-4.913 2.323zM100.409 18.38v0c1.079-0.365 1.926-0.825 2.543-1.382 0.614-0.563 0.993-1.218 1.139-1.965 0.15-0.755 0.072-1.586-0.234-2.493v0l-0.107-0.316c-0.302-0.894-0.733-1.591-1.294-2.091-0.565-0.492-1.255-0.778-2.072-0.858-0.819-0.086-1.764 0.052-2.837 0.415v0l-0.105 0.035c-1.162 0.393-2.049 0.885-2.66 1.476-0.614 0.584-0.977 1.244-1.092 1.98-0.123 0.732-0.039 1.525 0.25 2.38v0l0.1 0.297c0.306 0.907 0.748 1.615 1.326 2.124 0.575 0.503 1.284 0.79 2.127 0.861 0.84 0.065 1.812-0.09 2.916-0.463z" fill="#d9cbce" data-fill-palette-color="primary"></path><path d="M140.259 18.773l0.516-0.001 5.456-18.759 4.499-0.013-6.671 21.684-7.067 0.02-6.795-21.645 4.499-0.013z" fill="#d9cbce" data-fill-palette-color="primary"></path><path d="M178.131 28.548v0c-3.292-1.057-5.505-2.631-6.638-4.722-1.14-2.093-1.236-4.616-0.289-7.568v0l1.085-3.378c0.933-2.907 2.42-4.914 4.461-6.022 2.04-1.107 4.524-1.191 7.449-0.252v0c1.976 0.635 3.509 1.527 4.598 2.677 1.089 1.15 1.752 2.491 1.989 4.025 0.236 1.534 0.063 3.209-0.52 5.025v0l-0.25 0.78c-0.152 0.475-0.327 0.953-0.525 1.435-0.202 0.473-0.411 0.926-0.627 1.359v0l-3.793-1.218c0.261-0.723 0.498-1.408 0.713-2.054 0.215-0.646 0.407-1.235 0.578-1.768v0c0.367-1.142 0.493-2.163 0.379-3.063-0.106-0.905-0.458-1.683-1.056-2.335-0.6-0.646-1.455-1.147-2.564-1.503v0c-1.649-0.53-3.024-0.458-4.126 0.215-1.103 0.679-1.933 1.885-2.488 3.618v0l-0.622 1.934-0.128 0.5-0.588 1.829c-0.249 0.776-0.359 1.516-0.33 2.22 0.027 0.709 0.224 1.374 0.591 1.994 0.367 0.62 0.918 1.187 1.653 1.699 0.737 0.506 1.689 0.946 2.857 1.321v0c1.322 0.424 2.618 0.653 3.888 0.686 1.262 0.037 2.497-0.062 3.706-0.297v0l-1.507 3.402c-1.106 0.247-2.325 0.34-3.657 0.281-1.337-0.068-2.75-0.342-4.239-0.82zM188.026 21.638l-14.621-4.694 0.998-3.109 14.621 4.694z" fill="#d9cbce" data-fill-palette-color="primary"></path><path d="M214.573 31.979v0l1.183-3.307 0.869 0.61c1.358-1.138 2.761-1.801 4.209-1.987 1.448-0.186 2.933 0.255 4.456 1.322v0c0.359 0.252 0.662 0.506 0.911 0.762 0.243 0.253 0.455 0.496 0.636 0.731v0l-2.217 3.618c-0.217-0.301-0.489-0.606-0.815-0.916-0.325-0.311-0.701-0.615-1.125-0.913v0c-1.291-0.906-2.643-1.355-4.054-1.35-1.408 0-2.759 0.477-4.053 1.43zM207.196 42.796l-3.551-2.491 12.441-17.736 3.459 2.426-3.794 5.057 0.083 0.428z" fill="#d9cbce" data-fill-palette-color="primary"></path><path d="M231.733 67.17v0c-1.08-1.371-1.887-2.683-2.42-3.936-0.528-1.258-0.895-2.367-1.102-3.327v0l2.868-2.763c0.247 1.195 0.616 2.437 1.106 3.724 0.496 1.283 1.25 2.567 2.265 3.853v0c0.976 1.239 1.882 2.013 2.719 2.324 0.837 0.31 1.615 0.182 2.334-0.386v0l0.143-0.112c0.461-0.363 0.748-0.787 0.864-1.273 0.115-0.485 0.05-1.134-0.194-1.945-0.245-0.811-0.688-1.886-1.331-3.224v0c-0.798-1.688-1.301-3.115-1.508-4.282-0.211-1.172-0.134-2.19 0.233-3.054 0.371-0.858 1.006-1.642 1.905-2.351v0l0.159-0.125c1.53-1.206 3.108-1.587 4.736-1.145 1.631 0.448 3.288 1.738 4.968 3.872v0c1.06 1.345 1.838 2.627 2.337 3.848 0.497 1.23 0.817 2.316 0.96 3.259v0l-2.591 2.544c-0.2-1.104-0.547-2.263-1.042-3.478-0.494-1.215-1.217-2.426-2.167-3.634v0c-0.651-0.826-1.252-1.425-1.803-1.797-0.546-0.377-1.049-0.564-1.51-0.561-0.461 0.003-0.887 0.159-1.279 0.468v0l-0.127 0.1c-0.429 0.338-0.71 0.748-0.845 1.232-0.134 0.483-0.09 1.122 0.133 1.916 0.223 0.794 0.637 1.815 1.242 3.062v0c0.833 1.678 1.383 3.106 1.652 4.285 0.268 1.179 0.239 2.21-0.086 3.093-0.33 0.878-0.995 1.71-1.995 2.498v0l-0.262 0.207c-1.657 1.306-3.352 1.719-5.086 1.24-1.728-0.483-3.487-1.86-5.276-4.132z" fill="#d9cbce" data-fill-palette-color="primary"></path><path d="M249.367 99.884v0c-1.215-3.237-1.354-5.949-0.418-8.136 0.933-2.193 2.851-3.834 5.754-4.924v0l3.322-1.246c2.858-1.073 5.355-1.153 7.49-0.241 2.135 0.912 3.742 2.807 4.822 5.684v0c0.729 1.943 0.981 3.699 0.756 5.266-0.225 1.567-0.866 2.92-1.922 4.058-1.056 1.138-2.477 2.042-4.262 2.712v0l-0.767 0.288c-0.467 0.175-0.95 0.335-1.451 0.479-0.496 0.136-0.981 0.253-1.455 0.352v0l-1.399-3.729c0.729-0.245 1.413-0.483 2.052-0.717 0.64-0.233 1.221-0.448 1.746-0.644v0c1.123-0.422 2.002-0.957 2.637-1.605 0.644-0.645 1.035-1.404 1.175-2.277 0.134-0.871-0.004-1.852-0.414-2.943v0c-0.609-1.622-1.518-2.655-2.729-3.101-1.217-0.443-2.678-0.345-4.381 0.295v0l-1.903 0.714-0.472 0.209-1.798 0.675c-0.764 0.287-1.412 0.659-1.945 1.119-0.539 0.462-0.938 1.029-1.197 1.701-0.259 0.673-0.361 1.456-0.306 2.35 0.061 0.891 0.307 1.911 0.738 3.06v0c0.488 1.3 1.113 2.458 1.876 3.475 0.754 1.013 1.599 1.92 2.533 2.72v0l-3.603 0.931c-0.88-0.714-1.71-1.612-2.49-2.693-0.776-1.091-1.439-2.368-1.989-3.832zM260.927 103.353l-5.395-14.378 3.057-1.147 5.395 14.377z" fill="#d9cbce" data-fill-palette-color="primary"></path><path d="M11.523 190.319l-3.112-8.733 3.571-1.273 2.949 8.276c0.627 1.759 1.43 2.878 2.41 3.359 0.986 0.478 2.127 0.487 3.422 0.025v0l0.667-0.238c1.327-0.473 2.212-1.211 2.656-2.213 0.45-1.005 0.346-2.431-0.312-4.278v0l-2.895-8.123 3.409-1.215 2.882 8.085c0.591 1.657 1.363 2.709 2.316 3.156 0.947 0.449 2.046 0.451 3.297 0.006v0l0.342-0.123c1.225-0.437 2.056-1.116 2.494-2.037 0.437-0.921 0.35-2.239-0.261-3.953v0l-2.895-8.123 3.543-1.262 3.041 8.532c1.084 3.041 1.281 5.432 0.592 7.173-0.683 1.739-2.106 2.994-4.271 3.765v0l-0.39 0.139c-1.657 0.591-3.078 0.668-4.264 0.232-1.188-0.442-2.175-1.425-2.961-2.948v0l-0.219 0.078c0.292 1.964 0.068 3.543-0.673 4.737-0.745 1.203-2.06 2.14-3.946 2.812v0l-0.819 0.292c-2.362 0.842-4.44 0.802-6.234-0.118-1.788-0.922-3.235-2.933-4.339-6.03zM8.866 182.862l-1.528-4.285 27.626-9.846 1.527 4.285z" fill="#d9cbce" data-fill-palette-color="primary"></path><path d="M30.706 224.739l-2.627-3.64 24.632-17.781 2.627 3.64z" fill="#d9cbce" data-fill-palette-color="primary"></path><path d="M56.223 250.047v0c-2.604-2.031-4.042-4.269-4.316-6.713-0.268-2.44 0.616-4.964 2.652-7.574v0l1.958-2.511c2.023-2.593 4.248-4.054 6.676-4.383 2.433-0.325 4.951 0.529 7.555 2.56v0c2.604 2.031 4.039 4.262 4.306 6.693 0.272 2.435-0.604 4.948-2.626 7.542v0l-1.959 2.51c-2.035 2.609-4.269 4.081-6.701 4.415-2.426 0.338-4.942-0.508-7.545-2.539zM58.467 247.169v0c1.435 1.119 2.861 1.543 4.278 1.272 1.421-0.276 2.755-1.214 4.003-2.813v0l2.3-2.95c1.244-1.594 1.822-3.109 1.737-4.543-0.086-1.435-0.846-2.712-2.281-3.831v0c-1.435-1.119-2.858-1.546-4.271-1.28-1.413 0.266-2.741 1.196-3.985 2.789v0l-2.3 2.95c-1.248 1.6-1.833 3.122-1.755 4.567 0.082 1.44 0.84 2.72 2.275 3.839z" fill="#d9cbce" data-fill-palette-color="primary"></path><path d="M98.762 264.09v0c-2.988-1.01-5.065-2.423-6.229-4.239-1.161-1.808-1.342-3.893-0.544-6.255v0l0.12-0.355c0.505-1.494 1.251-2.682 2.24-3.565 0.995-0.88 2.28-1.399 3.855-1.557 1.58-0.149 3.491 0.112 5.732 0.784v0l11.166 3.368-1.123 3.323-5.822-2.255-0.081 0.239c0.763 0.5 1.349 1.071 1.758 1.715 0.4 0.647 0.632 1.362 0.695 2.144 0.059 0.774-0.07 1.627-0.385 2.56v0l-0.081 0.239c-0.753 2.228-2.086 3.678-3.998 4.348-1.912 0.67-4.347 0.505-7.303-0.494zM94.781 275.273v0l0.546 0.184c1.232 0.416 2.306 0.68 3.222 0.79 0.914 0.117 1.661 0.063 2.242-0.16 0.587-0.221 0.985-0.642 1.195-1.261v0l0.022-0.067c0.25-0.741 0.176-1.385-0.222-1.932-0.392-0.545-1.217-1.094-2.474-1.647v0l-5.932-2.655 1.089 0.314c-0.735-0.12-1.408-0.149-2.021-0.085-0.61 0.057-1.129 0.227-1.559 0.508-0.425 0.29-0.733 0.716-0.922 1.279v0l-0.017 0.048c-0.224 0.664-0.179 1.277 0.137 1.838 0.324 0.558 0.888 1.068 1.691 1.532 0.802 0.47 1.803 0.908 3.003 1.314zM94.095 278.818l-0.718-0.242c-1.954-0.66-3.581-1.402-4.882-2.226-1.297-0.815-2.199-1.725-2.707-2.729-0.507-1.004-0.553-2.122-0.136-3.354v0l0.029-0.086c0.278-0.824 0.699-1.457 1.261-1.9 0.56-0.437 1.221-0.719 1.982-0.846 0.759-0.121 1.554-0.104 2.385 0.048v0l0.075-0.22c-0.98-0.573-1.645-1.196-1.994-1.869-0.343-0.671-0.379-1.405-0.109-2.203v0l0.009-0.028c0.186-0.549 0.467-0.981 0.843-1.295 0.385-0.318 0.866-0.511 1.445-0.579 0.58-0.074 1.259-0.019 2.035 0.165v0l0.162-0.479 4.113 2.606-1.605-0.617c-0.86-0.276-1.487-0.367-1.882-0.273-0.395 0.094-0.656 0.33-0.783 0.707v0l-0.006 0.019c-0.147 0.434-0.013 0.839 0.401 1.213 0.414 0.375 1.177 0.821 2.29 1.339v0l4.99 2.316c2.202 1.021 3.686 2.145 4.452 3.372 0.766 1.227 0.851 2.724 0.254 4.493v0l-0.039 0.115c-0.46 1.36-1.232 2.34-2.317 2.941-1.085 0.601-2.432 0.861-4.041 0.779-1.615-0.083-3.451-0.472-5.507-1.167zM99.754 260.936v0c1.117 0.378 2.101 0.529 2.952 0.453 0.857-0.073 1.584-0.372 2.18-0.896 0.597-0.524 1.055-1.258 1.375-2.203v0l0.11-0.326c0.313-0.926 0.395-1.769 0.247-2.531-0.155-0.764-0.543-1.436-1.166-2.016-0.622-0.58-1.489-1.058-2.599-1.433v0l-0.115-0.039c-1.2-0.406-2.237-0.56-3.109-0.463-0.874 0.103-1.593 0.419-2.155 0.947-0.556 0.531-0.983 1.236-1.281 2.117v0l-0.104 0.307c-0.319 0.945-0.401 1.807-0.244 2.585 0.157 0.779 0.56 1.459 1.21 2.042 0.65 0.582 1.549 1.068 2.699 1.456z" fill="#d9cbce" data-fill-palette-color="primary"></path><path d="M140.224 274.536l0.526 0.002 5.77-19.393 4.66 0.013-7.042 22.423-7.319-0.022-6.909-22.464 4.66 0.014z" fill="#d9cbce" data-fill-palette-color="primary"></path><path d="M185.188 270.647v0c-3.408 1.092-6.22 1.097-8.434 0.017-2.221-1.079-3.822-3.149-4.803-6.211v0l-1.12-3.495c-0.966-3.017-0.921-5.604 0.136-7.761 1.048-2.162 3.087-3.728 6.116-4.698v0c2.054-0.658 3.885-0.831 5.493-0.518 1.614 0.311 2.98 1.041 4.098 2.19 1.127 1.154 1.99 2.667 2.591 4.542v0l0.259 0.808c0.16 0.501 0.299 1.012 0.417 1.533 0.124 0.519 0.222 1.026 0.296 1.519v0l-3.928 1.259c-0.217-0.766-0.429-1.483-0.637-2.153-0.209-0.676-0.403-1.29-0.579-1.842v0c-0.378-1.181-0.887-2.118-1.528-2.812-0.64-0.694-1.407-1.134-2.302-1.322-0.895-0.187-1.917-0.097-3.066 0.271v0c-1.707 0.547-2.82 1.438-3.337 2.672-0.517 1.234-0.489 2.747 0.084 4.538v0l0.645 2.012 0.179 0.495 0.611 1.906c0.255 0.796 0.607 1.486 1.056 2.071 0.454 0.577 1.022 1.014 1.705 1.312 0.678 0.306 1.482 0.452 2.412 0.437 0.929-0.015 1.998-0.215 3.204-0.602v0c1.374-0.44 2.604-1.029 3.691-1.766 1.089-0.731 2.073-1.559 2.952-2.485v0l0.774 3.775c-0.78 0.88-1.751 1.693-2.913 2.441-1.168 0.749-2.526 1.372-4.072 1.867zM189.361 258.854l-15.144 4.852-1.031-3.216 15.144-4.852z" fill="#d9cbce" data-fill-palette-color="primary"></path><path d="M211.754 241.597v0l-2.797-2.325 0.903-0.631c-0.629-1.723-0.776-3.322-0.442-4.798 0.334-1.475 1.291-2.765 2.871-3.869v0c0.376-0.263 0.729-0.469 1.06-0.618 0.331-0.149 0.646-0.27 0.943-0.363v0l2.737 3.44c-0.377 0.107-0.773 0.265-1.187 0.472-0.414 0.207-0.84 0.464-1.276 0.769v0c-1.342 0.938-2.261 2.094-2.756 3.468-0.495 1.374-0.514 2.859-0.056 4.455zM219.677 252.612l-3.688 2.578-12.858-18.395 3.596-2.513 3.582 5.476 0.442 0.086z" fill="#d9cbce" data-fill-palette-color="primary"></path><path d="M249.626 224.632v0c-1.122 1.415-2.251 2.541-3.388 3.378-1.142 0.832-2.171 1.47-3.089 1.912v0l-3.474-2.225c1.147-0.536 2.307-1.207 3.48-2.014 1.178-0.803 2.295-1.87 3.351-3.201v0c1.017-1.283 1.581-2.385 1.69-3.304 0.111-0.91-0.206-1.66-0.951-2.251v0l-0.142-0.113c-0.481-0.381-0.978-0.573-1.492-0.576-0.518 0.002-1.157 0.222-1.917 0.661-0.764 0.443-1.743 1.147-2.936 2.109v0c-1.501 1.21-2.818 2.062-3.95 2.558-1.134 0.486-2.178 0.647-3.132 0.485-0.954-0.163-1.899-0.615-2.834-1.357v0l-0.159-0.125c-1.584-1.256-2.346-2.758-2.284-4.507 0.058-1.743 0.961-3.719 2.712-5.927v0c1.101-1.389 2.21-2.484 3.326-3.284 1.117-0.791 2.135-1.369 3.052-1.735v0l3.189 1.999c-1.069 0.459-2.158 1.084-3.266 1.875-1.103 0.794-2.148 1.815-3.136 3.061v0c-0.678 0.856-1.141 1.602-1.389 2.24-0.247 0.647-0.312 1.202-0.197 1.663 0.11 0.457 0.369 0.847 0.776 1.17v0l0.127 0.1c0.444 0.352 0.926 0.541 1.447 0.567 0.52 0.017 1.154-0.181 1.903-0.594 0.749-0.413 1.677-1.074 2.786-1.984v0c1.492-1.242 2.801-2.14 3.927-2.692 1.121-0.557 2.165-0.773 3.134-0.65 0.964 0.119 1.963 0.589 2.999 1.409v0l0.269 0.213c1.711 1.357 2.533 2.967 2.465 4.832-0.069 1.855-1.035 3.958-2.897 6.308z" fill="#d9cbce" data-fill-palette-color="primary"></path><path d="M270.819 185.851v0c-1.27 3.346-3.017 5.548-5.243 6.607-2.228 1.065-4.845 1.027-7.85-0.114v0l-3.431-1.302c-2.962-1.124-4.957-2.771-5.986-4.942-1.037-2.167-0.992-4.738 0.137-7.712v0c0.765-2.016 1.771-3.556 3.018-4.618 1.249-1.069 2.671-1.682 4.267-1.841 1.604-0.163 3.326 0.105 5.166 0.804v0l0.794 0.301c0.491 0.187 0.978 0.396 1.459 0.629 0.483 0.227 0.941 0.465 1.372 0.716v0l-1.463 3.856c-0.734-0.307-1.427-0.589-2.081-0.844-0.659-0.257-1.26-0.489-1.801-0.694v0c-1.159-0.44-2.21-0.626-3.152-0.558-0.941 0.068-1.764 0.394-2.468 0.977-0.704 0.583-1.271 1.439-1.699 2.567v0c-0.636 1.676-0.633 3.101 0.011 4.275 0.643 1.174 1.844 2.094 3.601 2.762v0l1.976 0.749 0.498 0.168 1.872 0.71c0.781 0.297 1.541 0.451 2.278 0.465 0.734 0.004 1.43-0.168 2.088-0.516 0.662-0.34 1.277-0.878 1.845-1.614 0.568-0.736 1.076-1.696 1.526-2.881v0c0.512-1.348 0.818-2.678 0.919-3.988 0.107-1.307 0.072-2.593-0.105-3.856v0l3.436 1.747c0.202 1.158 0.233 2.424 0.093 3.798-0.142 1.381-0.501 2.83-1.077 4.349zM264.196 175.239l-5.642 14.867-3.157-1.198 5.642-14.867z" fill="#d9cbce" data-fill-palette-color="primary"></path><path d="M1.445 138.621c0-6.187 5.016-11.203 11.204-11.204 6.187 0 11.203 5.016 11.203 11.204 0 6.187-5.016 11.203-11.203 11.203-6.187 0-11.203-5.016-11.204-11.203z" fill="#d9cbce" data-fill-palette-color="primary"></path><path d="M256.21 138.621c0-6.187 5.016-11.203 11.203-11.204 6.187 0 11.203 5.016 11.204 11.204 0 6.187-5.016 11.203-11.204 11.203-6.187 0-11.203-5.016-11.203-11.203z" fill="#d9cbce" data-fill-palette-color="primary"></path></g><g id="text-1"></g></svg></g></svg></g></svg></g><g></g></svg></g><defs></defs></svg><rect width="280" height="280" fill="none" stroke="none" visibility="hidden"></rect></g></svg></g></svg>